{"title":"Great Grand Masti Hindi 2016 DesiSCR x264-Hindify.mp4","uid":15578655,"size":482917731,"categoryP":"video","categoryS":"movies","magnet":"?xt=urn:btih:999aa51ef7a9fd9e28dcd56f588a5ef7a7fc1fc0&amp;dn=Great+Grand+Masti+Hindi+2016+DesiSCR+x264-Hindify.mp4&amp;tr=udp%3A%2F%2Ftracker.leechers-paradise.org%3A6969&amp;tr=udp%3A%2F%2Fzer0day.ch%3A1337&amp;tr=udp%3A%2F%2Fopen.demonii.com%3A1337&amp;tr=udp%3A%2F%2Ftracker.coppersurfer.tk%3A6969&amp;tr=udp%3A%2F%2Fexodus.desync.com%3A6969","seeders":1,"leechers":0,"uploader":null,"files":1,"time":1471374547,"description":"Great Grand Masti Hindi 2016 DesiSCR x264-Hindify.mp4\r\n\r\nScreenshots:\r\n \nhttp://extraimago.com/images/2016/08/16/vlcsnap-2016-08-16-14h06m41s188.png \nhttp://extraimago.com/images/2016/08/16/vlcsnap-2016-08-16-14h06m38s138.png \nhttp://extraimago.com/images/2016/08/16/vlcsnap-2016-08-16-14h06m35s340.png \nhttp://extraimago.com/images/2016/08/16/vlcsnap-2016-08-16-14h06m31s342.png \nhttp://extraimago.com/images/2016/08/16/vlcsnap-2016-08-16-14h06m28s400.png\r\n\r\nInfo:\r\n\r\nFormat : MPEG-4\r\nFormat profile : Base Media\r\nCodec ID : isom (isom/iso2/avc1/mp41)\r\nFile size : 461 MiB\r\nDuration : 2 h 14 min\r\nOverall bit rate : 480 kb/s\r\nWriting application : Lavf57.25.100\r\n\r\nVideo\r\nID : 1\r\nFormat : AVC\r\nFormat/Info : Advanced Video Codec\r\nFormat profile :   \r\nFormat settings, CABAC : Yes\r\nFormat settings, ReFrames : 4 frames\r\nCodec ID : avc1\r\nCodec ID/Info : Advanced Video Coding\r\nDuration : 2 h 14 min\r\nBit rate : 341 kb/s\r\nWidth : 640 pixels\r\nHeight : 272 pixels\r\nDisplay aspect ratio : 2.35:1\r\nFrame rate mode : Variable\r\nFrame rate : 29.970 (30000/1001) FPS\r\nMinimum frame rate : 29.412 FPS\r\nMaximum frame rate : 30.303 FPS\r\nColor space : YUV\r\nChroma subsampling : 4:2:0\r\nBit depth : 8 bits\r\nScan type : Progressive\r\nBits/(Pixel*Frame) : 0.065\r\nStream size : 327 MiB (71%)\r\nWriting library : x264 core 142 r2431 ac76440\r\nEncoding settings : cabac=1 / ref=3 / deblock=1:0:0 / analyse=0x3:0x113 / me=hex / subme=7 / psy=1 / psy_rd=1.00:0.00 / mixed_ref=1 / me_range=16 / chroma_me=1 / trellis=1 / 8x8dct=1 / cqm=0 / deadzone=21,11 / fast_pskip=1 / chroma_qp_offset=-2 / threads=1 / lookahead_threads=1 / sliced_threads=0 / nr=0 / decimate=1 / interlaced=0 / bluray_compat=0 / constrained_intra=0 / bframes=3 / b_pyramid=2 / b_adapt=1 / b_bias=0 / direct=1 / weightb=1 / open_gop=0 / weightp=2 / keyint=300 / keyint_min=29 / scenecut=40 / intra_refresh=0 / rc_lookahead=40 / rc=2pass / mbtree=1 / bitrate=341 / ratetol=1.0 / qcomp=0.60 / qpmin=0 / qpmax=69 / qpstep=4 / cplxblur=20.0 / qblur=0.5 / ip_ratio=1.40 / aq=1:1.00\r\n\r\nAudio\r\nID : 2\r\nFormat : AAC\r\nFormat/Info : Advanced Audio Codec\r\nFormat profile : LC\r\nCodec ID : 40\r\nDuration : 2 h 14 min\r\nDuration_LastFrame : -11 ms\r\nBit rate mode : Constant\r\nBit rate : 129 kb/s\r\nChannel(s) : 2 channels\r\nChannel positions : Front: L R\r\nSampling rate : 48.0 kHz\r\nFrame rate : 46.875 FPS (1024 spf)\r\nCompression mode : Lossy\r\nStream size : 124 MiB (27%)\r\nLanguage : English\r\nDefault : Yes\r\nAlternate group : 1 \r\n \nhttp://tvmoviereviews.drupalgardens.com/content/great-grand-masti-review","torrent":{"xt":"urn:btih:999aa51ef7a9fd9e28dcd56f588a5ef7a7fc1fc0","amp;dn":"Great+Grand+Masti+Hindi+2016+DesiSCR+x264-Hindify.mp4","amp;tr":["udp%3A%2F%2Ftracker.leechers-paradise.org%3A6969","udp%3A%2F%2Fzer0day.ch%3A1337","udp%3A%2F%2Fopen.demonii.com%3A1337","udp%3A%2F%2Ftracker.coppersurfer.tk%3A6969","udp%3A%2F%2Fexodus.desync.com%3A6969"],"infoHash":"999aa51ef7a9fd9e28dcd56f588a5ef7a7fc1fc0","infoHashBuffer":{"type":"Buffer","data":[153,154,165,30,247,169,253,158,40,220,213,111,88,138,94,247,167,252,31,192]},"announce":[],"urlList":[]}}